<svg width="30" height="31" viewBox="0 0 30 31" fill="none" xmlns="http://www.w3.org/2000/svg">
<g clip-path="url(#clip0_7759_23541)">
<rect y="0.0151367" width="30" height="30" rx="5" fill="white"/>
<rect width="30" height="30" fill="#19AA1E"/>
<path fill-rule="evenodd" clip-rule="evenodd" d="M0 0H30V9.84375L0 5.15625V0Z" fill="#FFB919"/>
<path fill-rule="evenodd" clip-rule="evenodd" d="M0 26.7188L30 22.0312V30H0V26.7188Z" fill="#82D714"/>
<path fill-rule="evenodd" clip-rule="evenodd" d="M0 4.56323L10.4717 6.19941C11.7753 5.37429 13.3261 4.92188 15 4.92188C17.3184 4.92188 19.4008 5.78976 20.917 7.3138C21.1083 7.50611 21.2888 7.70719 21.458 7.91604L30 9.2507V10.4368L22.3254 9.23765C22.8956 10.3318 23.2031 11.5509 23.2031 12.795C23.2031 14.4023 22.8436 16.0048 22.1005 17.6137L22.0778 17.6625L21.7622 18.3388H21.0159C19.4748 18.3388 18.4525 18.7998 17.7841 19.6168C17.2593 20.2583 16.9559 21.123 16.8538 22.0665L16.8507 22.0961L16.8357 22.2468L16.8294 22.3124L16.8173 22.4407C16.7782 22.8619 16.7521 23.2192 16.7388 23.5103L30 21.4382V22.6243L0 27.3118V26.1257L13.2762 24.0513L13.2703 23.785L13.2686 23.7099L13.2675 23.6714L13.2654 23.612C13.2535 23.2891 13.2239 22.8752 13.1765 22.3736L13.1674 22.2785L13.1512 22.1138C13.0559 21.1653 12.7569 20.2895 12.2335 19.6385C11.5722 18.816 10.5593 18.3482 9.03058 18.3389L8.98409 18.3388H8.23777L7.92216 17.6625C7.16368 16.0372 6.79688 14.4185 6.79688 12.795C6.79688 10.7534 7.62517 8.77913 9.083 7.3138C9.12509 7.2715 9.16761 7.2297 9.21055 7.18842L0 5.74929V4.56323Z" fill="white"/>
<path fill-rule="evenodd" clip-rule="evenodd" d="M15 6.09375C19.1883 6.09375 22.0312 9.31746 22.0312 12.795C22.0312 14.1911 21.7266 15.6439 21.0159 17.1669C16.8946 17.1669 15.8774 20.1183 15.685 21.9753L15.6727 22.0991C15.6075 22.7618 15.5698 23.2937 15.5595 23.6946L14.4433 23.869L14.443 23.8328C14.4387 23.4126 14.399 22.8231 14.3239 22.0643L14.3206 22.0313C14.1429 20.1783 13.147 17.1669 8.98409 17.1669C8.27335 15.6439 7.96875 14.1911 7.96875 12.795C7.96875 9.31746 10.8117 6.09375 15 6.09375Z" fill="#0073FA"/>
</g>
<defs>
<clipPath id="clip0_7759_23541">
<rect y="0.0151367" width="30" height="30" rx="5" fill="white"/>
</clipPath>
</defs>
</svg>
