<svg width="30" height="30" viewBox="0 0 30 30" fill="none" xmlns="http://www.w3.org/2000/svg">
<mask id="mask0_7140_35640" style="mask-type:luminance" maskUnits="userSpaceOnUse" x="0" y="0" width="30" height="30">
<path fill-rule="evenodd" clip-rule="evenodd" d="M7.45581 0.0131874L8.73898 0L22.0905 0.0051362C22.293 0.00722786 22.4188 0.0097651 22.5447 0.0131874C23.2066 0.0307626 23.8743 0.0695312 24.5289 0.185837C25.1935 0.303694 25.8115 0.496503 26.4148 0.800449C27.0077 1.09871 27.551 1.48846 28.0215 1.9542C28.4921 2.41891 28.8863 2.95547 29.188 3.54217C29.496 4.1392 29.6905 4.7502 29.8097 5.4072C29.9273 6.05437 29.9665 6.71448 29.9843 7.36889C29.9927 7.66922 29.9963 7.96954 29.9979 8.27039L29.9997 8.8052L30 20.6573C30 21.0139 30 21.3706 29.9979 21.7278C29.9963 22.0281 29.9927 22.3285 29.9843 22.6288C29.9665 23.2827 29.9273 23.9433 29.8097 24.59C29.6905 25.247 29.496 25.8585 29.188 26.4555C28.8863 27.0417 28.4921 27.5783 28.0215 28.0435C27.551 28.5087 27.0077 28.899 26.4148 29.1972C25.8115 29.5012 25.1935 29.694 24.5289 29.8118C23.8743 29.9281 23.2066 29.9669 22.5447 29.9845L20.5506 30L7.90963 29.9925C7.70721 29.9905 7.58151 29.9879 7.45581 29.9845C6.79388 29.9669 6.12621 29.9281 5.4716 29.8118C4.80706 29.694 4.18905 29.5012 3.58569 29.1972C2.99226 28.899 2.44954 28.5087 1.97898 28.0435C1.50842 27.5783 1.11419 27.0417 0.811982 26.4555C0.504548 25.8585 0.310049 25.247 0.190317 24.59C0.0726758 23.9433 0.0339851 23.2827 0.0162083 22.6288C0.00784271 22.3285 0.00418278 22.0281 0.00261424 21.7278L0.00032678 21.1923L0 9.3404C0 8.98373 0 8.62654 0.00261424 8.27039C0.00418278 7.96954 0.00784271 7.66922 0.0162083 7.36889C0.0339851 6.71448 0.0726758 6.05437 0.190317 5.4072C0.310049 4.7502 0.504548 4.1392 0.811982 3.54217C1.11419 2.95547 1.50842 2.41891 1.97898 1.9542C2.44954 1.48846 2.99226 1.09871 3.58569 0.800449C4.18905 0.496503 4.80706 0.303694 5.4716 0.185837C6.12621 0.0695312 6.79388 0.0307626 7.45581 0.0131874Z" fill="white"/>
</mask>
<g mask="url(#mask0_7140_35640)">
<rect y="-0.00195312" width="30" height="30.0023" fill="#19AA1E"/>
<path fill-rule="evenodd" clip-rule="evenodd" d="M0 -0.00195312H30V9.84256L0 5.1547V-0.00195312Z" fill="#FFB919"/>
<path fill-rule="evenodd" clip-rule="evenodd" d="M0 26.7189L30 22.031V30.0004H0V26.7189Z" fill="#82D714"/>
<path fill-rule="evenodd" clip-rule="evenodd" d="M0 4.56165L10.4717 6.19795C11.7753 5.37276 13.3261 4.92033 15 4.92033C17.3184 4.92033 19.4008 5.78827 20.917 7.31242C21.1083 7.50475 21.2888 7.70585 21.458 7.91471L30 9.24948V10.4357L22.3254 9.23643C22.8956 10.3307 23.2031 11.5499 23.2031 12.7941C23.2031 14.4015 22.8436 16.0041 22.1005 17.6132L22.0778 17.6619L21.7622 18.3383H21.0159C19.4748 18.3383 18.4525 18.7993 17.7841 19.6163C17.2593 20.2579 16.9559 21.1227 16.8538 22.0663L16.8507 22.0958L16.8357 22.2466L16.8294 22.3122L16.8173 22.4405C16.7782 22.8618 16.7521 23.219 16.7388 23.5102L30 21.4379V22.6241L0 27.312V26.1258L13.2762 24.0512L13.2703 23.7849L13.2686 23.7098L13.2675 23.6713L13.2654 23.6119C13.2535 23.2889 13.2239 22.8751 13.1764 22.3734L13.1674 22.2783L13.1512 22.1135C13.0559 21.165 12.7569 20.2891 12.2335 19.6381C11.5722 18.8155 10.5593 18.3477 9.03057 18.3384L8.98409 18.3383H8.23777L7.92216 17.6619C7.16368 16.0365 6.79687 14.4177 6.79687 12.7941C6.79687 10.7523 7.62516 8.77787 9.083 7.31242C9.12509 7.27012 9.1676 7.22832 9.21055 7.18704L0 5.74779V4.56165Z" fill="white"/>
<path fill-rule="evenodd" clip-rule="evenodd" d="M15 6.09229C19.1883 6.09229 22.0312 9.31625 22.0312 12.7941C22.0312 14.1903 21.7266 15.6432 21.0159 17.1663C16.8946 17.1663 15.8774 20.1179 15.685 21.9751L15.6727 22.0989C15.6075 22.7617 15.5698 23.2935 15.5595 23.6944L14.4433 23.8689L14.443 23.8327C14.4387 23.4125 14.399 22.8229 14.3239 22.0641L14.3206 22.031C14.1429 20.1779 13.147 17.1663 8.98409 17.1663C8.27335 15.6432 7.96875 14.1903 7.96875 12.7941C7.96875 9.31625 10.8117 6.09229 15 6.09229Z" fill="#0073FA"/>
</g>
</svg>
