<svg width="32" height="32" viewBox="0 0 32 32" fill="none" xmlns="http://www.w3.org/2000/svg">
<g clip-path="url(#clip0_485_18338)">
<mask id="mask0_485_18338" style="mask-type:luminance" maskUnits="userSpaceOnUse" x="0" y="0" width="33" height="32">
<path fill-rule="evenodd" clip-rule="evenodd" d="M7.95347 0.0140666L9.3223 0L23.565 0.00547862C23.781 0.00770971 23.9152 0.0104161 24.0496 0.0140666C24.7557 0.0328134 25.4679 0.0741666 26.1662 0.198226C26.8751 0.32394 27.5344 0.529603 28.178 0.853813C28.8105 1.17196 29.39 1.58769 29.892 2.08448C30.3939 2.58017 30.8145 3.1525 31.1363 3.77831C31.4648 4.41515 31.6723 5.06688 31.7995 5.76768C31.9249 6.458 31.9668 7.16211 31.9857 7.86015C31.9947 8.1805 31.9986 8.50085 32.0002 8.82175L32.0022 9.39222L32.0025 22.0344C32.0025 22.4149 32.0025 22.7953 32.0002 23.1763C31.9986 23.4967 31.9947 23.817 31.9857 24.1374C31.9668 24.8349 31.9249 25.5395 31.7995 26.2293C31.6723 26.9301 31.4648 27.5824 31.1363 28.2192C30.8145 28.8445 30.3939 29.4168 29.892 29.913C29.39 30.4093 28.8105 30.8256 28.178 31.1437C27.5344 31.4679 26.8751 31.6736 26.1662 31.7993C25.4679 31.9234 24.7557 31.9647 24.0496 31.9835L21.9223 32L8.43759 31.992C8.22166 31.9898 8.08757 31.9871 7.95347 31.9835C7.24737 31.9647 6.53512 31.9234 5.83682 31.7993C5.12793 31.6736 4.46867 31.4679 3.82503 31.1437C3.19199 30.8256 2.61305 30.4093 2.11107 29.913C1.6091 29.4168 1.18856 28.8445 0.866181 28.2192C0.538226 27.5824 0.330744 26.9301 0.20302 26.2293C0.0775269 25.5395 0.0362536 24.8349 0.0172902 24.1374C0.00836621 23.817 0.00446198 23.4967 0.00278874 23.1763L0.000348592 22.6052L0 9.9631C0 9.58265 0 9.20165 0.00278874 8.82175C0.00446198 8.50085 0.00836621 8.1805 0.0172902 7.86015C0.0362536 7.16211 0.0775269 6.458 0.20302 5.76768C0.330744 5.06688 0.538226 4.41515 0.866181 3.77831C1.18856 3.1525 1.6091 2.58017 2.11107 2.08448C2.61305 1.58769 3.19199 1.17196 3.82503 0.853813C4.46867 0.529603 5.12793 0.32394 5.83682 0.198226C6.53512 0.0741666 7.24737 0.0328134 7.95347 0.0140666Z" fill="white"/>
</mask>
<g mask="url(#mask0_485_18338)">
<rect y="-0.00292969" width="32.0025" height="32.0025" fill="#19AA1E"/>
<path fill-rule="evenodd" clip-rule="evenodd" d="M0 -0.00292969H32.0025V10.4979L0 5.4975V-0.00292969Z" fill="#FFB919"/>
<path fill-rule="evenodd" clip-rule="evenodd" d="M0 28.4992L32.0025 23.4988V31.9994H0V28.4992Z" fill="#82D714"/>
<path fill-rule="evenodd" clip-rule="evenodd" d="M0 4.86475L11.1707 6.61014C12.5613 5.72994 14.2156 5.24734 16.0012 5.24734C18.4744 5.24734 20.6957 6.17314 22.3132 7.79891C22.5173 8.00406 22.7098 8.21856 22.8903 8.44135L32.0025 9.8651V11.1304L23.8156 9.85118C24.4238 11.0184 24.7519 12.3188 24.7519 13.646C24.7519 15.3605 24.3684 17.07 23.5757 18.7864L23.5515 18.8384L23.2148 19.5598H22.4187C20.7747 19.5598 19.6842 20.0516 18.9712 20.9231C18.4114 21.6074 18.0877 22.5299 17.9788 23.5364L17.9754 23.5679L17.9595 23.7287L17.9527 23.7986L17.9398 23.9355C17.8981 24.3849 17.8702 24.766 17.8561 25.0765L32.0025 22.8661V24.1314L0 29.1317V27.8665L14.1624 25.6536L14.1561 25.3696L14.1543 25.2894L14.153 25.2484L14.1509 25.185C14.1381 24.8405 14.1065 24.399 14.056 23.8639L14.0463 23.7625L14.029 23.5868C13.9273 22.575 13.6084 21.6408 13.0501 20.9463C12.3446 20.0689 11.2641 19.5699 9.63336 19.56L9.58377 19.5598H8.78763L8.45096 18.8384C7.64185 17.1046 7.25056 15.3779 7.25056 13.646C7.25056 11.4681 8.13414 9.36205 9.68929 7.79891C9.73418 7.75379 9.77954 7.7092 9.82535 7.66516L0 6.12997V4.86475Z" fill="white"/>
<path fill-rule="evenodd" clip-rule="evenodd" d="M16.0012 6.49756C20.4691 6.49756 23.5018 9.93645 23.5018 13.6461C23.5018 15.1354 23.1769 16.6852 22.4187 18.3098C18.0223 18.3098 16.9371 21.4583 16.732 23.4392L16.7188 23.5713C16.6493 24.2782 16.6091 24.8455 16.5981 25.2732L15.4073 25.4592L15.407 25.4207C15.4025 24.9724 15.3601 24.3436 15.2799 23.5342L15.2764 23.4989C15.0869 21.5222 14.0245 18.3098 9.58376 18.3098C8.82558 16.6852 8.50064 15.1354 8.50064 13.6461C8.50064 9.93645 11.5334 6.49756 16.0012 6.49756Z" fill="#0073FA"/>
</g>
</g>
<defs>
<clipPath id="clip0_485_18338">
<rect width="32" height="32" fill="white"/>
</clipPath>
</defs>
</svg>
