<svg width="30" height="30" viewBox="0 0 30 30" fill="none" xmlns="http://www.w3.org/2000/svg">
<rect width="30" height="30" rx="5" fill="white"/>
<path d="M5.97112 5.04922C5.12837 5.15867 4.25826 5.62382 3.76575 6.22578C3.22946 6.88794 2.91206 7.84013 3.02151 8.46398C3.15284 9.2137 3.55233 9.71169 4.74531 10.6037C5.97112 11.534 6.22832 11.8131 6.3706 12.415C6.41438 12.5847 6.43627 13.3508 6.44722 14.593C6.45269 16.7109 6.49647 17.1377 6.88501 18.9545C7.33921 21.0833 7.9357 22.2708 9.15057 23.4911C10.2615 24.602 11.3395 25.1766 13.1782 25.6472C15.0881 26.1343 16.7189 26.1179 18.273 25.5925C18.9023 25.3791 19.8326 24.9139 20.4893 24.4762C21.9559 23.5075 23.0012 21.9917 23.4882 20.1366C23.7126 19.2774 23.7782 18.7849 23.7728 17.8819C23.7728 16.9899 23.729 16.6233 23.4663 15.4358C23.2091 14.2702 23.1434 13.6737 23.2146 13.2742C23.3514 12.5354 23.6469 12.229 24.9986 11.4191C25.4966 11.1236 26.0602 10.7514 26.2517 10.5927C26.8756 10.0783 27.2368 9.3724 27.3024 8.51871C27.3462 8.00978 27.2039 7.19439 27.0124 6.83322C26.6075 6.09445 25.4692 5.45418 24.2872 5.30642C23.2967 5.18056 22.3554 5.4104 20.7739 6.16011C20.2978 6.38448 19.7889 6.5979 19.6466 6.63621C19.2909 6.72377 18.7765 6.63621 17.786 6.31881C16.5492 5.93027 15.9582 5.80988 15.0881 5.77158C14.207 5.73327 13.7474 5.78799 12.7569 6.03972C12.1823 6.18748 11.9798 6.21484 11.3997 6.21484C10.6062 6.22031 10.36 6.15464 9.32021 5.67307C8.55408 5.3119 7.91928 5.12584 7.22429 5.04922C6.63328 4.98355 6.49647 4.98355 5.97112 5.04922ZM14.0648 13.2578C14.1468 13.2851 14.2891 13.3782 14.3767 13.4603C14.9239 13.9747 14.705 14.8448 13.9772 15.0637C13.2877 15.2716 12.6091 14.593 12.8171 13.9035C12.9812 13.3618 13.5504 13.0608 14.0648 13.2578ZM20.0242 14.3796C20.4291 14.5712 20.6097 15.2278 20.3799 15.6602C19.953 16.4701 18.8367 16.0596 18.9133 15.1239C18.9352 14.801 19.0556 14.604 19.3347 14.4125C19.5481 14.2702 19.767 14.2592 20.0242 14.3796Z" fill="#1A1A1A"/>
</svg>
