<svg width="30" height="30" viewBox="0 0 30 30" fill="none" xmlns="http://www.w3.org/2000/svg">
<path d="M15.019 12.2424C12.3972 11.7879 11.1813 11.6667 11.1813 10.6667C11.1813 9.75758 12.0553 8.81818 14.943 8.81818C17.9827 8.81818 18.8566 9.78788 19.2366 11.0303H25.772C25.3161 7.36364 22.4663 4 14.943 4C9.88946 4 4.68394 6.24243 4.68394 10.9091C4.68394 15.303 9.12953 16.5758 13.4611 17.303C17.9067 18.0606 19.5026 18.1515 19.5026 19.3939C19.5026 20.5152 18.3247 21.1818 15.7029 21.1818C12.3212 21.1818 11.1434 20.3636 10.5354 18.6061H4C4.53195 22.2121 7.60967 26 15.7409 26C19.9965 26 26 24.3636 26 19.1818C26 14.8485 22.4663 13.5152 15.019 12.2424Z" fill="#00BBFF"/>
</svg>
