<svg width="30" height="30" viewBox="0 0 30 30" fill="none" xmlns="http://www.w3.org/2000/svg">
<path fill-rule="evenodd" clip-rule="evenodd" d="M0 9.95273L4.46257e-05 14.5721L0.787619 14.5769C1.50621 14.5811 1.61234 14.5967 1.99843 14.7544C3.3063 15.2886 4.32422 16.4527 4.87091 18.0395C5.0931 18.6847 5.20757 19.2989 5.28848 20.2805C5.45 22.2403 5.93169 23.2894 6.6066 23.6847C6.87093 23.8396 7.09159 24 7.52349 24C7.89739 24 8.56689 23.9541 9.12224 22.7073C9.71202 21.3831 10.1314 19.8292 10.4242 17.8409C10.7915 15.347 10.5343 12.6355 10.3166 11.3333C9.93459 9.04949 9.21608 7.1547 8.38939 6.25163C8.05554 5.88688 7.58474 5.5626 7.25082 5.46744C6.89137 5.36503 6.08907 5.37878 5.76215 5.49298C5.09119 5.72739 4.20332 6.47022 3.94981 7.72977C3.77798 8.58377 3.97502 9.65763 4.12667 10.0735C4.53476 11.1924 5.02797 11.7584 6.72412 13.0549C8.30211 14.2609 8.69428 14.7846 8.84587 15.8878C8.94754 16.6279 8.75935 17.311 8.35279 17.6771C8.05611 17.9442 7.80393 18.0301 7.42946 17.9918C6.82363 17.9297 6.42063 17.5655 5.9979 16.6978C5.83384 16.3611 4.83233 14.0565 3.77231 11.5766C2.71222 9.09666 1.6784 6.6782 1.47494 6.20232L1.10501 5.33696L0.552506 5.3352L0 5.33337V9.95273ZM12.6019 6.97302V8.61265H13.942H15.2821V6.97302V5.33337H13.942H12.6019V6.97302ZM17.4921 14.7298V24H18.8323H20.1724V14.7298V5.4595H18.8323H17.4921V14.7298ZM22.3824 14.7298V24H23.7225H25.0627V14.7298V5.4595H23.7225H22.3824V14.7298ZM12.6019 17.1577V24H13.942H15.2821V17.1577V10.3153H13.942H12.6019V17.1577ZM27.1317 22.1397V24H28.5658H30V22.1397V20.2793H28.5658H27.1317V22.1397Z" fill="#9BBECE"/>
</svg>
