<svg width="32" height="32" viewBox="0 0 32 32" fill="none" xmlns="http://www.w3.org/2000/svg">
<path fill-rule="evenodd" clip-rule="evenodd" d="M16.0011 4.99512C9.9232 4.99512 4.99609 9.92222 4.99609 16.0001C4.99609 22.078 9.9232 27.0051 16.0011 27.0051C22.079 27.0051 27.0061 22.078 27.0061 16.0001C27.0061 9.92222 22.079 4.99512 16.0011 4.99512ZM2.99609 16.0001C2.99609 8.81765 8.81863 2.99512 16.0011 2.99512C23.1836 2.99512 29.0061 8.81765 29.0061 16.0001C29.0061 23.1826 23.1836 29.0051 16.0011 29.0051C8.81863 29.0051 2.99609 23.1826 2.99609 16.0001ZM21.3569 12.0958C21.7474 12.4863 21.7474 13.1195 21.3569 13.51L14.9976 19.8693C14.9578 19.9335 14.9099 19.9943 14.8542 20.0501C14.4636 20.4406 13.8305 20.4406 13.4399 20.0501L10.5494 17.1595C10.1589 16.769 10.1589 16.1358 10.5494 15.7453C10.9399 15.3548 11.5731 15.3548 11.9636 15.7453L14.1284 17.9101L19.9426 12.0958C20.3332 11.7053 20.9663 11.7053 21.3569 12.0958Z" fill="#323232"/>
</svg>
