<svg width="24" height="24" viewBox="0 0 24 24" fill="none" xmlns="http://www.w3.org/2000/svg">
<path d="M18.7701 17.6717C19.0739 17.9755 19.0739 18.4681 18.7701 18.7719C18.6187 18.9233 18.4196 19 18.2205 19C18.0214 19 17.8223 18.9243 17.6709 18.7719L11.999 13.1L6.327 18.7719C6.17561 18.9233 5.97652 19 5.77743 19C5.57834 19 5.37925 18.9243 5.22786 18.7719C4.92405 18.4681 4.92405 17.9755 5.22786 17.6717L10.8998 11.9999L5.22786 6.32805C4.92405 6.02424 4.92405 5.53167 5.22786 5.22786C5.53168 4.92405 6.02422 4.92405 6.32804 5.22786L12 10.8998L17.672 5.22786C17.9758 4.92405 18.4683 4.92405 18.7721 5.22786C19.076 5.53167 19.076 6.02424 18.7721 6.32805L13.1002 11.9999L18.7701 17.6717Z" fill="#1A1A1A"/>
</svg>
