<svg width="32" height="32" viewBox="0 0 32 32" fill="none" xmlns="http://www.w3.org/2000/svg">
<path fill-rule="evenodd" clip-rule="evenodd" d="M7.45261 12.448C8.4418 8.5564 11.9636 5.6665 16.1659 5.6665C21.1316 5.6665 25.1659 9.70089 25.1659 14.6665V15.0153C28.0938 15.2311 30.4126 17.6848 30.4126 20.6665C30.4126 23.7895 27.8689 26.3332 24.7459 26.3332H21.3326C20.7803 26.3332 20.3326 25.8855 20.3326 25.3332C20.3326 24.7809 20.7803 24.3332 21.3326 24.3332H24.7459C26.7643 24.3332 28.4126 22.6849 28.4126 20.6665C28.4126 18.6481 26.7643 16.9998 24.7459 16.9998H24.1659C23.6137 16.9998 23.1659 16.5521 23.1659 15.9998V14.6665C23.1659 10.8055 20.027 7.6665 16.1659 7.6665C12.6966 7.6665 9.81489 10.2057 9.26868 13.5262C9.19231 13.9904 8.80265 14.3386 8.33278 14.3625C5.68632 14.4973 3.58594 16.6653 3.58594 19.3332C3.58594 22.0942 5.82489 24.3332 8.58594 24.3332H10.6659C11.2182 24.3332 11.6659 24.7809 11.6659 25.3332C11.6659 25.8855 11.2182 26.3332 10.6659 26.3332H8.58594C4.72032 26.3332 1.58594 23.1988 1.58594 19.3332C1.58594 15.8501 4.1324 12.9892 7.45261 12.448ZM15.2916 15.0701C15.6821 14.6795 16.3153 14.6795 16.7058 15.0701L19.5951 17.9594C19.9857 18.3499 19.9857 18.9831 19.5951 19.3736C19.2046 19.7641 18.5715 19.7641 18.1809 19.3736L17 18.1927V25.3332C17 25.8855 16.5523 26.3332 16 26.3332C15.4477 26.3332 15 25.8855 15 25.3332V18.1901L13.8165 19.3736C13.426 19.7641 12.7928 19.7641 12.4023 19.3736C12.0117 18.9831 12.0117 18.3499 12.4023 17.9594L15.2916 15.0701Z" fill="#1A1A1A"/>
</svg>
