<svg width="31" height="6" viewBox="0 0 31 6" fill="none" xmlns="http://www.w3.org/2000/svg">
<mask id="path-1-inside-1_5982_34513" fill="white">
<path d="M0.121341 1.24477C-0.246162 2.26569 0.249551 3.41454 1.22434 3.72901C10.5036 6.72253 20.4718 6.75741 29.7674 3.82887C30.7429 3.52153 31.2441 2.37741 30.8825 1.35439C30.541 0.388657 29.5536 -0.111664 28.6327 0.178394C20.0819 2.87159 10.9126 2.83926 2.37692 0.0858144C1.45762 -0.210737 0.467925 0.281979 0.121341 1.24477Z"/>
</mask>
<path d="M2.37692 0.0858144L1.14891 3.89265L2.37692 0.0858144ZM0.121341 1.24477L3.88492 2.59957L0.121341 1.24477ZM30.8825 1.35439L27.1112 2.6876L30.8825 1.35439ZM28.6327 0.178394L29.8343 3.99363L28.6327 0.178394ZM29.7674 3.82887L30.9694 7.64401L29.7674 3.82887ZM1.22434 3.72901L2.45243 -0.0777973L1.22434 3.72901ZM-0.00374849 7.53582C10.0647 10.7839 20.8821 10.822 30.9694 7.64401L28.5655 0.0137263C20.0615 2.69287 10.9425 2.66112 2.45243 -0.0777973L-0.00374849 7.53582ZM27.431 -3.63684C19.6717 -1.19295 11.3515 -1.22211 3.60494 -3.72102L1.14891 3.89265C10.4736 6.90063 20.492 6.93613 29.8343 3.99363L27.431 -3.63684ZM3.60494 -3.72102C0.533466 -4.71182 -2.60095 -3.00268 -3.64224 -0.110022L3.88492 2.59957C3.5368 3.56664 2.38176 4.29035 1.14891 3.89265L3.60494 -3.72102ZM34.6537 0.02117C33.631 -2.87175 30.5119 -4.60721 27.431 -3.63684L29.8343 3.99363C28.5953 4.38388 27.4511 3.64906 27.1112 2.6876L34.6537 0.02117ZM30.9694 7.64401C34.4108 6.55981 35.6579 2.86179 34.6537 0.0211699L27.1112 2.6876C26.9421 2.20925 26.968 1.6903 27.1741 1.22877C27.3838 0.759276 27.8393 0.242516 28.5655 0.0137264L30.9694 7.64401ZM2.45243 -0.0777973C3.1746 0.155176 3.62467 0.672547 3.83068 1.14072C4.0333 1.60117 4.05751 2.12011 3.88492 2.59957L-3.64224 -0.110022C-4.66427 2.72915 -3.43166 6.42996 -0.00374849 7.53582L2.45243 -0.0777973Z" fill="white" mask="url(#path-1-inside-1_5982_34513)"/>
</svg>
