<svg width="31" height="6" viewBox="0 0 31 6" fill="none" xmlns="http://www.w3.org/2000/svg">
<path fill-rule="evenodd" clip-rule="evenodd" d="M27.6465 0.432353C19.71 2.74827 11.2859 2.71835 3.36222 0.346085C3.09183 0.265132 2.82202 0.181451 2.55283 0.0950426C2.50435 0.079479 2.45565 0.0658775 2.40685 0.0542067C1.45193 -0.174174 0.453624 0.33475 0.114161 1.28581C-0.242652 2.28548 0.263733 3.39478 1.25977 3.71837C1.312 3.73534 1.36424 3.75221 1.4165 3.76899C1.7251 3.86805 2.03445 3.96381 2.3445 4.05627C10.9272 6.61575 20.0477 6.64815 28.6441 4.14969C28.9546 4.05944 29.2645 3.96587 29.5736 3.86901C29.6259 3.8526 29.6783 3.83611 29.7306 3.81951C30.7284 3.50299 31.2408 2.39731 30.8894 1.39513C30.5551 0.441678 29.5596 -0.07432 28.6034 0.147268C28.5545 0.158595 28.5058 0.171844 28.4572 0.187064C28.1876 0.271558 27.9173 0.353323 27.6465 0.432353Z" fill="#1A1A1A"/>
</svg>
