<svg width="24" height="24" viewBox="0 0 24 24" fill="none" xmlns="http://www.w3.org/2000/svg">
<path d="M17.4217 14.2381C17.2356 14.2381 17.0485 14.167 16.9062 14.0257C16.6207 13.7411 16.6188 13.2782 16.9043 12.9917L18.8211 11.0642C19.6085 10.2866 20.0383 9.24386 20.0383 8.12514C20.0383 7.00838 19.6065 5.96175 18.823 5.17728C17.2015 3.55476 14.5606 3.55476 12.9371 5.17728L11.0205 7.10387C10.736 7.39037 10.2731 7.39134 9.98656 7.10679C9.70104 6.82224 9.69892 6.35935 9.98347 6.07285L11.9022 4.14531C14.0977 1.95076 17.6644 1.9527 19.856 4.14433C20.9163 5.2036 21.5 6.61761 21.5 8.12514C21.5 9.63755 20.9153 11.0486 19.8541 12.0991L17.9411 14.0228C17.7969 14.167 17.6098 14.2381 17.4217 14.2381ZM12.0954 19.858L14.0237 17.9402C14.3092 17.6556 14.3113 17.1928 14.0258 16.9063C13.7413 16.6198 13.2783 16.6198 12.9918 16.9033L11.0633 18.8231C9.44181 20.4456 6.80093 20.4456 5.17744 18.8231C3.55493 17.2006 3.55496 14.5607 5.17649 12.9391L7.10499 11.0213C7.39052 10.7368 7.39242 10.2739 7.1069 9.98737C6.82235 9.70087 6.35944 9.70088 6.07294 9.98446L4.14444 11.9042C1.95185 14.0968 1.95185 17.6634 4.14444 19.8561C5.2417 20.9524 6.68204 21.5 8.12135 21.5C9.56066 21.5 11.0001 20.9533 12.0954 19.858ZM9.59187 15.4406L15.464 9.56933C15.7495 9.28381 15.7495 8.82092 15.464 8.53539C15.1794 8.25084 14.7168 8.24889 14.4303 8.53539L8.55791 14.4067C8.27239 14.6922 8.27239 15.1551 8.55791 15.4406C8.70019 15.5829 8.88732 15.655 9.07442 15.655C9.26152 15.655 9.4496 15.5839 9.59187 15.4406Z" fill="#1A1A1A"/>
</svg>
