<svg width="24" height="24" viewBox="0 0 24 24" fill="none" xmlns="http://www.w3.org/2000/svg">
<path d="M2 5.77778C2 5.34844 2.34462 5 2.76923 5H21.2308C21.6554 5 22 5.34844 22 5.77778C22 6.20711 21.6554 6.55556 21.2308 6.55556H2.76923C2.34462 6.55556 2 6.20711 2 5.77778ZM21.2308 11.2222H2.76923C2.34462 11.2222 2 11.5707 2 12C2 12.4293 2.34462 12.7778 2.76923 12.7778H21.2308C21.6554 12.7778 22 12.4293 22 12C22 11.5707 21.6554 11.2222 21.2308 11.2222ZM21.2308 17.4444H2.76923C2.34462 17.4444 2 17.7929 2 18.2222C2 18.6516 2.34462 19 2.76923 19H21.2308C21.6554 19 22 18.6516 22 18.2222C22 17.7929 21.6554 17.4444 21.2308 17.4444Z" fill="#1A1A1A"/>
</svg>
