

<svg width="16" height="16" viewBox="0 0 16 16" fill="none" xmlns="http://www.w3.org/2000/svg">
<path d="M5.26966 9.05383C4.33173 7.2969 3.31564 6.93518 2.53404 5.48829C1.9348 4.35146 3.41986 3.67969 5.06123 3.67969C6.72865 3.67969 7.58842 4.22227 8.13555 5.20408C8.70872 6.21174 8.52635 7.14188 9.22979 8.64043L9.25585 8.58876C10.1938 6.83183 9.49033 6.28925 10.1938 4.99739C10.7148 4.06725 11.3662 3.67969 12.3562 3.67969C13.3723 3.67969 13.8673 4.42897 13.4505 5.20408C12.8512 6.26341 11.7049 6.83183 10.7409 8.58876L9.17769 11.4567C8.47424 12.671 7.06735 12.5419 6.54628 11.4567L5.26966 9.05383Z" fill="black"/>
</svg>
