<svg width="42" height="42" viewBox="0 0 42 42" fill="none" xmlns="http://www.w3.org/2000/svg">
<g filter="url(#filter0_b_2172_45)">
<circle cx="21" cy="21" r="20" fill="#1A1A1A" fill-opacity="0.04"/>
<circle cx="21" cy="21" r="20.5" stroke="white" stroke-opacity="0.4"/>
</g>
<path d="M22.4099 21.0002L26.7099 16.7102C26.8982 16.5219 27.004 16.2665 27.004 16.0002C27.004 15.7339 26.8982 15.4785 26.7099 15.2902C26.5216 15.1019 26.2662 14.9961 25.9999 14.9961C25.7336 14.9961 25.4782 15.1019 25.2899 15.2902L20.9999 19.5902L16.7099 15.2902C16.5216 15.1019 16.2662 14.9961 15.9999 14.9961C15.7336 14.9961 15.4782 15.1019 15.2899 15.2902C15.1016 15.4785 14.9958 15.7339 14.9958 16.0002C14.9958 16.2665 15.1016 16.5219 15.2899 16.7102L19.5899 21.0002L15.2899 25.2902C15.1962 25.3831 15.1218 25.4937 15.071 25.6156C15.0203 25.7375 14.9941 25.8682 14.9941 26.0002C14.9941 26.1322 15.0203 26.2629 15.071 26.3848C15.1218 26.5066 15.1962 26.6172 15.2899 26.7102C15.3829 26.8039 15.4935 26.8783 15.6154 26.9291C15.7372 26.9798 15.8679 27.006 15.9999 27.006C16.132 27.006 16.2627 26.9798 16.3845 26.9291C16.5064 26.8783 16.617 26.8039 16.7099 26.7102L20.9999 22.4102L25.2899 26.7102C25.3829 26.8039 25.4935 26.8783 25.6154 26.9291C25.7372 26.9798 25.8679 27.006 25.9999 27.006C26.132 27.006 26.2627 26.9798 26.3845 26.9291C26.5064 26.8783 26.617 26.8039 26.7099 26.7102C26.8037 26.6172 26.8781 26.5066 26.9288 26.3848C26.9796 26.2629 27.0057 26.1322 27.0057 26.0002C27.0057 25.8682 26.9796 25.7375 26.9288 25.6156C26.8781 25.4937 26.8037 25.3831 26.7099 25.2902L22.4099 21.0002Z" fill="white"/>
<defs>
<filter id="filter0_b_2172_45" x="-44" y="-44" width="130" height="130" filterUnits="userSpaceOnUse" color-interpolation-filters="sRGB">
<feFlood flood-opacity="0" result="BackgroundImageFix"/>
<feGaussianBlur in="BackgroundImageFix" stdDeviation="22"/>
<feComposite in2="SourceAlpha" operator="in" result="effect1_backgroundBlur_2172_45"/>
<feBlend mode="normal" in="SourceGraphic" in2="effect1_backgroundBlur_2172_45" result="shape"/>
</filter>
</defs>
</svg>
