<svg width="33" height="7" viewBox="0 0 33 7" fill="none" xmlns="http://www.w3.org/2000/svg">
<g id="Ellipse 9026">
<mask id="path-1-inside-1_4718_16511" fill="white">
<path d="M1.03796 2.04156C0.714176 2.93042 1.17183 3.91723 2.07214 4.20906C11.7617 7.34995 22.2095 7.25895 31.8382 3.9498C32.7328 3.64234 33.1718 2.64771 32.8313 1.76463C32.4907 0.881563 31.4998 0.444658 30.6043 0.749567C21.7497 3.76432 12.1554 3.84789 3.24538 0.987863C2.34424 0.698603 1.36174 1.1527 1.03796 2.04156Z"/>
</mask>
<path d="M1.03796 2.04156C0.714176 2.93042 1.17183 3.91723 2.07214 4.20906C11.7617 7.34995 22.2095 7.25895 31.8382 3.9498C32.7328 3.64234 33.1718 2.64771 32.8313 1.76463C32.4907 0.881563 31.4998 0.444658 30.6043 0.749567C21.7497 3.76432 12.1554 3.84789 3.24538 0.987863C2.34424 0.698603 1.36174 1.1527 1.03796 2.04156Z" stroke="white" stroke-width="8" stroke-linecap="round" mask="url(#path-1-inside-1_4718_16511)"/>
</g>
</svg>
