<svg width="24" height="24" viewBox="0 0 24 24" fill="none" xmlns="http://www.w3.org/2000/svg">
<path d="M11.9529 16.7905C11.8177 16.6562 11.7417 16.4742 11.7417 16.2844C11.7417 16.0946 11.8177 15.9125 11.9529 15.7782L15.5353 12.2255L5.72226 12.2255C5.5307 12.2255 5.34699 12.1501 5.21154 12.0157C5.07609 11.8814 5 11.6992 5 11.5092C5 11.3193 5.07609 11.1371 5.21154 11.0028C5.34699 10.8684 5.5307 10.793 5.72226 10.793L15.5353 10.793L11.9529 7.2403C11.882 7.17472 11.8251 7.09565 11.7856 7.00778C11.7461 6.91992 11.7249 6.82508 11.7232 6.7289C11.7215 6.63273 11.7393 6.5372 11.7756 6.44801C11.8119 6.35882 11.866 6.2778 11.9346 6.20979C12.0032 6.14177 12.0849 6.08815 12.1748 6.05213C12.2647 6.01611 12.3611 5.99841 12.4581 6.00011C12.555 6.00181 12.6507 6.02286 12.7393 6.06201C12.8279 6.10115 12.9076 6.1576 12.9737 6.22797L17.7888 11.0031C17.924 11.1374 18 11.3194 18 11.5092C18 11.6991 17.924 11.8811 17.7888 12.0154L12.9737 16.7905C12.8383 16.9247 12.6547 17 12.4633 17C12.2719 17 12.0884 16.9247 11.9529 16.7905Z" fill="#1A1A1A"/>
</svg>
