<svg width="36" height="36" viewBox="0 0 36 36" fill="none" xmlns="http://www.w3.org/2000/svg">
<path d="M0 8C0 3.58172 3.58172 0 8 0H28C32.4183 0 36 3.58172 36 8V28C36 32.4183 32.4183 36 28 36H8C3.58172 36 0 32.4183 0 28V8Z" fill="#38ACFF"/>
<path fill-rule="evenodd" clip-rule="evenodd" d="M6.67778 18.1048C12.253 15.8577 15.9706 14.3762 17.8308 13.6605C23.1419 11.6168 24.2455 11.2618 24.9648 11.2501C25.123 11.2475 25.4767 11.2838 25.7058 11.4558C25.8993 11.6011 25.9525 11.7973 25.978 11.935C26.0035 12.0727 26.0352 12.3863 26.01 12.6314C25.7222 15.429 24.4768 22.218 23.8433 25.3513C23.5752 26.6771 23.0473 27.1217 22.5363 27.1652C21.4257 27.2597 20.5824 26.4862 19.5067 25.8339C17.8235 24.8132 16.8726 24.1777 15.2387 23.1817C13.3506 22.0306 14.5746 21.3979 15.6507 20.364C15.9323 20.0934 20.8256 15.9758 20.9203 15.6023C20.9321 15.5556 20.9431 15.3815 20.8313 15.2895C20.7195 15.1976 20.5544 15.229 20.4353 15.254C20.2665 15.2895 17.5776 16.9337 12.3685 20.1866C11.6053 20.6715 10.9139 20.9077 10.2945 20.8953C9.61169 20.8817 8.29817 20.5381 7.32171 20.2445C6.12403 19.8843 5.17214 19.6939 5.25503 19.0823C5.2982 18.7637 5.77245 18.4378 6.67778 18.1048Z" fill="white"/>
</svg>
