<svg width="36" height="578" viewBox="0 0 36 578" fill="none" xmlns="http://www.w3.org/2000/svg">
<rect y="481" width="118" height="36" rx="18" transform="rotate(-90 0 481)" fill="#1A1A1A"/>
<path d="M20.288 446.104V444.872H21.648V446.104H24V447.544H21.648V452.664H20.4L12.8 447.848V446.104H20.288ZM20.288 447.544H14.8L20.288 451.016V447.544ZM16.576 440.172C16.576 439.489 16.7413 438.871 17.072 438.316C17.392 437.761 17.84 437.324 18.416 437.004C18.992 436.684 19.6427 436.524 20.368 436.524C21.0933 436.524 21.744 436.689 22.32 437.02C22.896 437.351 23.3493 437.815 23.68 438.412C24.0107 438.999 24.176 439.66 24.176 440.396C24.176 441.079 24.032 441.692 23.744 442.236C23.456 442.769 23.072 443.196 22.592 443.516C22.112 443.836 21.6 444.033 21.056 444.108V442.636C21.3333 442.593 21.6107 442.476 21.888 442.284C22.1547 442.092 22.3787 441.831 22.56 441.5C22.7307 441.169 22.816 440.801 22.816 440.396C22.816 439.948 22.7147 439.543 22.512 439.18C22.2987 438.807 22.0053 438.519 21.632 438.316C21.2587 438.103 20.8373 437.996 20.368 437.996C19.888 437.996 19.4613 438.103 19.088 438.316C18.7147 438.519 18.4267 438.807 18.224 439.18C18.0107 439.543 17.904 439.948 17.904 440.396C17.904 440.983 18.048 441.447 18.336 441.788C18.624 442.129 18.944 442.38 19.296 442.54V443.868L12.8 443.148V437.324H14.16V441.932L17.36 442.3C17.136 442.065 16.9493 441.767 16.8 441.404C16.6507 441.031 16.576 440.62 16.576 440.172ZM22.176 427.687L15.952 424.871V423.495H24V424.855H18.736L24 427.319V428.119L18.736 430.583H24V431.943H15.952L15.952 430.519L22.176 427.687ZM21.856 420.458L15.952 416.154V414.938H24V416.298H18.096L24 420.602V421.818H15.952V420.458H21.856ZM19.312 407.832H15.952V406.44H24V407.832H20.608L20.608 411.88H24V413.256H15.952V411.88H19.312L19.312 407.832ZM15.952 399.571V398.147L24.624 401.603C25.5093 401.955 26.1173 402.313 26.448 402.675C26.7893 403.038 26.96 403.459 26.96 403.939C26.96 404.153 26.912 404.403 26.816 404.691H25.568C25.632 404.51 25.664 404.334 25.664 404.163C25.664 403.875 25.584 403.635 25.424 403.443C25.264 403.241 24.9973 403.065 24.624 402.915L23.808 402.595L15.952 405.779V404.291L22.096 401.907L15.952 399.571ZM24 394.434V395.826H17.248V398.338H15.952V391.922H17.248V394.434H24Z" fill="white"/>
<rect y="195" width="99" height="36" rx="18" transform="rotate(-90 0 195)" fill="#1A1A1A"/>
<path d="M14.752 174.664L12.8 171.912V170.824H24V172.296H14.656L15.856 173.976L14.752 174.664ZM16.576 165.328C16.576 164.646 16.7413 164.027 17.072 163.472C17.392 162.918 17.84 162.48 18.416 162.16C18.992 161.84 19.6427 161.68 20.368 161.68C21.0933 161.68 21.744 161.846 22.32 162.176C22.896 162.507 23.3493 162.971 23.68 163.568C24.0107 164.155 24.176 164.816 24.176 165.552C24.176 166.235 24.032 166.848 23.744 167.392C23.456 167.926 23.072 168.352 22.592 168.672C22.112 168.992 21.6 169.19 21.056 169.264V167.792C21.3333 167.75 21.6107 167.632 21.888 167.44C22.1547 167.248 22.3787 166.987 22.56 166.656C22.7307 166.326 22.816 165.958 22.816 165.552C22.816 165.104 22.7147 164.699 22.512 164.336C22.2987 163.963 22.0053 163.675 21.632 163.472C21.2587 163.259 20.8373 163.152 20.368 163.152C19.888 163.152 19.4613 163.259 19.088 163.472C18.7147 163.675 18.4267 163.963 18.224 164.336C18.0107 164.699 17.904 165.104 17.904 165.552C17.904 166.139 18.048 166.603 18.336 166.944C18.624 167.286 18.944 167.536 19.296 167.696V169.024L12.8 168.304V162.48H14.16V167.088L17.36 167.456C17.136 167.222 16.9493 166.923 16.8 166.56C16.6507 166.187 16.576 165.776 16.576 165.328ZM22.176 152.843L15.952 150.027V148.651H24V150.011H18.736L24 152.475V153.275L18.736 155.739H24V157.099H15.952V155.675L22.176 152.843ZM21.856 145.614L15.952 141.31V140.094H24V141.454H18.096L24 145.758V146.974H15.952V145.614H21.856ZM19.312 132.988H15.952V131.596H24V132.988H20.608V137.036H24V138.412H15.952V137.036H19.312V132.988ZM15.952 124.728V123.304L24.624 126.76C25.5093 127.112 26.1173 127.469 26.448 127.832C26.7893 128.194 26.96 128.616 26.96 129.096C26.96 129.309 26.912 129.56 26.816 129.848H25.568C25.632 129.666 25.664 129.49 25.664 129.32C25.664 129.032 25.584 128.792 25.424 128.6C25.264 128.397 24.9973 128.221 24.624 128.072L23.808 127.752L15.952 130.936V129.448L22.096 127.064L15.952 124.728ZM24 119.591V120.983H17.248V123.495H15.952V117.079H17.248V119.591H24Z" fill="white"/>
<path d="M18 277L18 191" stroke="#1A1A1A" stroke-width="3"/>
<path d="M18 98L18 18" stroke="#1A1A1A" stroke-width="3"/>
<path d="M18 369L18 291" stroke="#1A1A1A" stroke-width="3"/>
<path d="M18 559L18 475" stroke="#1A1A1A" stroke-width="3"/>
<circle cx="18" cy="10" r="8.5" stroke="#1A1A1A" stroke-width="3"/>
<circle cx="18" cy="284" r="8.5" stroke="#1A1A1A" stroke-width="3"/>
<circle cx="18" cy="568" r="8.5" stroke="#1A1A1A" stroke-width="3"/>
</svg>
