<svg width="32" height="440" viewBox="0 0 32 440" fill="none" xmlns="http://www.w3.org/2000/svg">
<rect y="365.507" width="94" height="32" rx="16" transform="rotate(-90 0 365.507)" fill="#1A1A1A"/>
<path d="M18.288 342.611V341.379H19.648V342.611H22V344.051H19.648V349.171H18.4L10.8 344.355V342.611H18.288ZM18.288 344.051H12.8L18.288 347.523V344.051ZM14.576 336.679C14.576 335.996 14.7413 335.378 15.072 334.823C15.392 334.268 15.84 333.831 16.416 333.511C16.992 333.191 17.6427 333.031 18.368 333.031C19.0933 333.031 19.744 333.196 20.32 333.527C20.896 333.858 21.3493 334.322 21.68 334.919C22.0107 335.506 22.176 336.167 22.176 336.903C22.176 337.586 22.032 338.199 21.744 338.743C21.456 339.276 21.072 339.703 20.592 340.023C20.112 340.343 19.6 340.54 19.056 340.615V339.143C19.3333 339.1 19.6107 338.983 19.888 338.791C20.1547 338.599 20.3787 338.338 20.56 338.007C20.7307 337.676 20.816 337.308 20.816 336.903C20.816 336.455 20.7147 336.05 20.512 335.687C20.2987 335.314 20.0053 335.026 19.632 334.823C19.2587 334.61 18.8373 334.503 18.368 334.503C17.888 334.503 17.4613 334.61 17.088 334.823C16.7147 335.026 16.4267 335.314 16.224 335.687C16.0107 336.05 15.904 336.455 15.904 336.903C15.904 337.49 16.048 337.954 16.336 338.295C16.624 338.636 16.944 338.887 17.296 339.047V340.375L10.8 339.655V333.831H12.16V338.439L15.36 338.807C15.136 338.572 14.9493 338.274 14.8 337.911C14.6507 337.538 14.576 337.127 14.576 336.679ZM20.176 324.194L13.952 321.378V320.002H22V321.362H16.736L22 323.826V324.626L16.736 327.09H22V328.45H13.952L13.952 327.026L20.176 324.194ZM19.856 316.965L13.952 312.661V311.445H22V312.805H16.096L22 317.109V318.325H13.952V316.965H19.856ZM17.312 304.339H13.952V302.947H22V304.339H18.608L18.608 308.387H22V309.763H13.952V308.387H17.312L17.312 304.339ZM13.952 296.078V294.654L22.624 298.11C23.5093 298.462 24.1173 298.82 24.448 299.182C24.7893 299.545 24.96 299.966 24.96 300.446C24.96 300.66 24.912 300.91 24.816 301.198H23.568C23.632 301.017 23.664 300.841 23.664 300.67C23.664 300.382 23.584 300.142 23.424 299.95C23.264 299.748 22.9973 299.572 22.624 299.422L21.808 299.102L13.952 302.286V300.798L20.096 298.414L13.952 296.078ZM22 290.941V292.333H15.248V294.845H13.952V288.429H15.248V290.941H22Z" fill="white"/>
<rect y="153.507" width="91" height="32" rx="16" transform="rotate(-90 0 153.507)" fill="#1A1A1A"/>
<path d="M12.752 137.171L10.8 134.419V133.331H22V134.803H12.656L13.856 136.483L12.752 137.171ZM14.576 127.835C14.576 127.153 14.7413 126.534 15.072 125.979C15.392 125.425 15.84 124.987 16.416 124.667C16.992 124.347 17.6427 124.187 18.368 124.187C19.0933 124.187 19.744 124.353 20.32 124.683C20.896 125.014 21.3493 125.478 21.68 126.075C22.0107 126.662 22.176 127.323 22.176 128.059C22.176 128.742 22.032 129.355 21.744 129.899C21.456 130.433 21.072 130.859 20.592 131.179C20.112 131.499 19.6 131.697 19.056 131.771V130.299C19.3333 130.257 19.6107 130.139 19.888 129.947C20.1547 129.755 20.3787 129.494 20.56 129.163C20.7307 128.833 20.816 128.465 20.816 128.059C20.816 127.611 20.7147 127.206 20.512 126.843C20.2987 126.47 20.0053 126.182 19.632 125.979C19.2587 125.766 18.8373 125.659 18.368 125.659C17.888 125.659 17.4613 125.766 17.088 125.979C16.7147 126.182 16.4267 126.47 16.224 126.843C16.0107 127.206 15.904 127.611 15.904 128.059C15.904 128.646 16.048 129.11 16.336 129.451C16.624 129.793 16.944 130.043 17.296 130.203V131.531L10.8 130.811V124.987H12.16V129.595L15.36 129.963C15.136 129.729 14.9493 129.43 14.8 129.067C14.6507 128.694 14.576 128.283 14.576 127.835ZM20.176 115.35L13.952 112.534V111.158H22V112.518H16.736L22 114.982V115.782L16.736 118.246H22V119.606H13.952V118.182L20.176 115.35ZM19.856 108.121L13.952 103.817V102.601H22V103.961H16.096L22 108.265V109.481H13.952V108.121H19.856ZM17.312 95.4948H13.952V94.1028H22V95.4948H18.608V99.5428H22V100.919H13.952V99.5428H17.312V95.4948ZM13.952 87.2345V85.8105L22.624 89.2665C23.5093 89.6185 24.1173 89.9758 24.448 90.3385C24.7893 90.7011 24.96 91.1225 24.96 91.6025C24.96 91.8158 24.912 92.0665 24.816 92.3545H23.568C23.632 92.1731 23.664 91.9971 23.664 91.8265C23.664 91.5385 23.584 91.2985 23.424 91.1065C23.264 90.9038 22.9973 90.7278 22.624 90.5785L21.808 90.2585L13.952 93.4425V91.9545L20.096 89.5705L13.952 87.2345ZM22 82.0976V83.4896H15.248V86.0016H13.952V79.5856H15.248V82.0976H22Z" fill="white"/>
<path d="M16 200.507L16 152.507" stroke="#1A1A1A" stroke-width="3"/>
<path d="M16 64L16 18" stroke="#1A1A1A" stroke-width="3"/>
<path d="M16 274.507L16 217.507" stroke="#1A1A1A" stroke-width="3"/>
<path d="M16 421.507L16 364.507" stroke="#1A1A1A" stroke-width="3"/>
<circle cx="16" cy="10" r="8.5" stroke="#1A1A1A" stroke-width="3"/>
<circle cx="16" cy="209.507" r="8.5" stroke="#1A1A1A" stroke-width="3"/>
<circle cx="16" cy="430" r="8.5" stroke="#1A1A1A" stroke-width="3"/>
</svg>
