<svg width="41" height="796" viewBox="0 0 41 796" fill="none" xmlns="http://www.w3.org/2000/svg">
<rect x="0.5" y="643" width="118" height="40" rx="20" transform="rotate(-90 0.5 643)" fill="#1A1A1A"/>
<path d="M23.86 614.38V612.84H25.56V614.38H28.5V616.18H25.56V622.58H24L14.5 616.56V614.38H23.86ZM23.86 616.18H17L23.86 620.52V616.18ZM19.22 606.84C19.22 605.987 19.4267 605.213 19.84 604.52C20.24 603.827 20.8 603.28 21.52 602.88C22.24 602.48 23.0533 602.28 23.96 602.28C24.8667 602.28 25.68 602.487 26.4 602.9C27.12 603.313 27.6867 603.893 28.1 604.64C28.5133 605.373 28.72 606.2 28.72 607.12C28.72 607.973 28.54 608.74 28.18 609.42C27.82 610.087 27.34 610.62 26.74 611.02C26.14 611.42 25.5 611.667 24.82 611.76V609.92C25.1667 609.867 25.5133 609.72 25.86 609.48C26.1933 609.24 26.4733 608.913 26.7 608.5C26.9133 608.087 27.02 607.627 27.02 607.12C27.02 606.56 26.8933 606.053 26.64 605.6C26.3733 605.133 26.0067 604.773 25.54 604.52C25.0733 604.253 24.5467 604.12 23.96 604.12C23.36 604.12 22.8267 604.253 22.36 604.52C21.8933 604.773 21.5333 605.133 21.28 605.6C21.0133 606.053 20.88 606.56 20.88 607.12C20.88 607.853 21.06 608.433 21.42 608.86C21.78 609.287 22.18 609.6 22.62 609.8V611.46L14.5 610.56L14.5 603.28H16.2V609.04L20.2 609.5C19.92 609.207 19.6867 608.833 19.5 608.38C19.3133 607.913 19.22 607.4 19.22 606.84ZM26.22 590.984L18.44 587.464L18.44 585.744H28.5V587.444H21.92L28.5 590.524V591.524L21.92 594.604H28.5V596.304H18.44V594.524L26.22 590.984ZM25.82 581.823L18.44 576.443V574.923H28.5V576.623H21.12L28.5 582.003V583.523H18.44V581.823H25.82ZM22.64 565.915H18.44V564.175H28.5V565.915H24.26V570.975H28.5V572.695H18.44V570.975H22.64V565.915ZM18.44 555.464V553.684L29.28 558.004C30.3867 558.444 31.1467 558.891 31.56 559.344C31.9867 559.798 32.2 560.324 32.2 560.924C32.2 561.191 32.14 561.504 32.02 561.864H30.46C30.54 561.638 30.58 561.418 30.58 561.204C30.58 560.844 30.48 560.544 30.28 560.304C30.08 560.051 29.7467 559.831 29.28 559.644L28.26 559.244L18.44 563.224V561.364L26.12 558.384L18.44 555.464ZM28.5 548.918V550.658H20.06V553.798H18.44V545.778H20.06V548.918H28.5Z" fill="white"/>
<rect x="0.5" y="262" width="114" height="40" rx="20" transform="rotate(-90 0.5 262)" fill="#1A1A1A"/>
<path d="M16.94 241.58L14.5 238.14V236.78H28.5V238.62H16.82L18.32 240.72L16.94 241.58ZM19.22 229.785C19.22 228.932 19.4267 228.159 19.84 227.465C20.24 226.772 20.8 226.225 21.52 225.825C22.24 225.425 23.0533 225.225 23.96 225.225C24.8667 225.225 25.68 225.432 26.4 225.845C27.12 226.259 27.6867 226.839 28.1 227.585C28.5133 228.319 28.72 229.145 28.72 230.065C28.72 230.919 28.54 231.685 28.18 232.365C27.82 233.032 27.34 233.565 26.74 233.965C26.14 234.365 25.5 234.612 24.82 234.705V232.865C25.1667 232.812 25.5133 232.665 25.86 232.425C26.1933 232.185 26.4733 231.859 26.7 231.445C26.9133 231.032 27.02 230.572 27.02 230.065C27.02 229.505 26.8933 228.999 26.64 228.545C26.3733 228.079 26.0067 227.719 25.54 227.465C25.0733 227.199 24.5467 227.065 23.96 227.065C23.36 227.065 22.8267 227.199 22.36 227.465C21.8933 227.719 21.5333 228.079 21.28 228.545C21.0133 228.999 20.88 229.505 20.88 230.065C20.88 230.799 21.06 231.379 21.42 231.805C21.78 232.232 22.18 232.545 22.62 232.745V234.405L14.5 233.505V226.225H16.2V231.985L20.2 232.445C19.92 232.152 19.6867 231.779 19.5 231.325C19.3133 230.859 19.22 230.345 19.22 229.785ZM26.22 213.929L18.44 210.409V208.689H28.5V210.389H21.92L28.5 213.469V214.469L21.92 217.549H28.5V219.249H18.44V217.469L26.22 213.929ZM25.82 204.768L18.44 199.388V197.868H28.5V199.568H21.12L28.5 204.948V206.468H18.44L18.44 204.768H25.82ZM22.64 188.86H18.44V187.12H28.5V188.86H24.26V193.92H28.5V195.64H18.44V193.92H22.64V188.86ZM18.44 178.41V176.63L29.28 180.95C30.3867 181.39 31.1467 181.836 31.56 182.29C31.9867 182.743 32.2 183.27 32.2 183.87C32.2 184.136 32.14 184.45 32.02 184.81H30.46C30.54 184.583 30.58 184.363 30.58 184.15C30.58 183.79 30.48 183.49 30.28 183.25C30.08 182.996 29.7467 182.776 29.28 182.59L28.26 182.19L18.44 186.17V184.31L26.12 181.33L18.44 178.41ZM28.5 171.863V173.603H20.06V176.743H18.44V168.723H20.06L20.06 171.863H28.5Z" fill="white"/>
<path d="M20.5 374L20.5 258" stroke="#1A1A1A" stroke-width="3"/>
<path d="M20.5 148L20.5 18" stroke="#1A1A1A" stroke-width="3"/>
<path d="M20.5 525L20.5 390" stroke="#1A1A1A" stroke-width="3"/>
<path d="M20.5 776L20.5 643" stroke="#1A1A1A" stroke-width="3"/>
<circle cx="20.5" cy="10" r="8.5" stroke="#1A1A1A" stroke-width="3"/>
<circle cx="20.5" cy="382" r="8.5" stroke="#1A1A1A" stroke-width="3"/>
<circle cx="20.5" cy="786" r="8.5" stroke="#1A1A1A" stroke-width="3"/>
</svg>
