<svg width="105" height="105" viewBox="0 0 105 105" fill="none" xmlns="http://www.w3.org/2000/svg">
<path d="M97.0047 55.8803C97.0718 55.2127 97.3059 54.6128 97.7068 54.0809C98.1169 53.5601 98.6422 53.1633 99.2828 52.8905C99.9335 52.6187 100.628 52.52 101.367 52.5943C102.105 52.6685 102.761 52.9031 103.334 53.298C103.908 53.6929 104.339 54.1859 104.627 54.7769C104.924 55.3791 105.039 56.014 104.972 56.6817C104.913 57.2685 104.723 57.7858 104.402 58.2338C104.08 58.692 103.68 59.0555 103.204 59.3243C102.727 59.5931 102.225 59.7522 101.699 59.8015L101.831 58.4964C102.341 58.4047 102.771 58.1924 103.121 57.8598C103.48 57.5383 103.687 57.1044 103.742 56.5581C103.785 56.1332 103.708 55.7269 103.512 55.3393C103.316 54.9517 103.022 54.6257 102.63 54.3615C102.236 54.1073 101.771 53.9532 101.235 53.8993C100.699 53.8454 100.208 53.9033 99.7616 54.073C99.3245 54.2538 98.9717 54.5096 98.7034 54.8403C98.4341 55.1811 98.2776 55.569 98.2338 56.004C98.1789 56.5503 98.2904 57.0163 98.5684 57.4019C98.8555 57.7986 99.2398 58.0928 99.7213 58.2843L99.59 59.5893C99.0842 59.4362 98.6245 59.1805 98.211 58.8221C97.7974 58.4637 97.4784 58.028 97.2541 57.5149C97.0288 57.012 96.9456 56.4671 97.0047 55.8803Z" fill="black"/>
<path d="M97.3102 65.1091L102.158 69.4572L101.762 70.7078L94.4476 68.3948L94.8385 67.1588L99.6227 68.6716L95.5466 64.9193L95.7766 64.1922L101.269 63.4656L96.4847 61.9528L96.8756 60.7167L104.19 63.0297L103.781 64.3239L97.3102 65.1091Z" fill="black"/>
<path d="M92.218 72.8451C92.5421 72.2575 92.993 71.7979 93.5708 71.4663C94.1525 71.1486 94.7915 70.9901 95.4877 70.991C96.1929 70.9967 96.8704 71.1789 97.5203 71.5374C98.1702 71.8959 98.6812 72.3694 99.0533 72.9579C99.4254 73.5464 99.6278 74.1689 99.6604 74.8256C99.697 75.496 99.5532 76.125 99.229 76.7126C98.9098 77.2913 98.4569 77.744 97.8703 78.0707C97.2925 78.4023 96.6556 78.5676 95.9593 78.5668C95.2631 78.5659 94.59 78.3862 93.9401 78.0277C93.2901 77.6692 92.7747 77.1932 92.3937 76.5998C92.0216 76.0114 91.8172 75.3819 91.7806 74.7114C91.753 74.0459 91.8987 73.4238 92.218 72.8451ZM93.2997 73.4418C93.0934 73.8157 93.0043 74.2194 93.0322 74.6529C93.0602 75.0863 93.2051 75.4972 93.467 75.8856C93.7378 76.2788 94.1091 76.6056 94.581 76.8658C95.0528 77.1261 95.5228 77.2635 95.991 77.2779C96.4591 77.2923 96.884 77.1957 97.2656 76.9881C97.6471 76.7806 97.9411 76.4899 98.1473 76.1159C98.3536 75.742 98.4428 75.3383 98.4148 74.9049C98.3868 74.4714 98.2444 74.056 97.9874 73.6588C97.7255 73.2705 97.3586 72.9462 96.8868 72.6859C96.4149 72.4256 95.9404 72.2858 95.4634 72.2665C94.9903 72.261 94.5655 72.3576 94.1888 72.5562C93.8072 72.7638 93.5108 73.059 93.2997 73.4418Z" fill="black"/>
<path d="M88.1485 79.5605L88.9485 78.5019L94.0834 82.3823L95.527 80.472L96.5126 81.2168L92.8253 86.0961L91.8397 85.3513L93.2834 83.4409L88.1485 79.5605Z" fill="black"/>
<path d="M84.675 79.8115L91.9058 87.3099L91.2032 87.9874L90.3276 87.4969L90.2727 87.5499C90.3104 87.8526 90.2674 88.2401 90.1437 88.7124C90.0128 89.1919 89.7497 89.6221 89.3545 90.0032C88.8934 90.4479 88.3489 90.7328 87.721 90.858C87.1002 90.9906 86.4646 90.9467 85.8142 90.7263C85.1565 90.513 84.563 90.1319 84.0337 89.583C83.5043 89.0341 83.145 88.4271 82.9558 87.7621C82.7592 87.1042 82.7349 86.4637 82.8828 85.8408C83.0308 85.2179 83.3353 84.6841 83.7964 84.2395C84.177 83.8725 84.6057 83.6286 85.0825 83.5078C85.5663 83.3943 85.948 83.3653 86.2274 83.4207L86.2823 83.3678L83.7309 80.722L84.675 79.8115ZM84.7088 85.0758C84.4087 85.3652 84.2154 85.714 84.1289 86.1223C84.0351 86.5377 84.0597 86.966 84.2026 87.4072C84.3454 87.8628 84.6038 88.2846 84.9778 88.6725C85.3519 89.0604 85.7605 89.3303 86.2035 89.4822C86.6393 89.6411 87.0664 89.6812 87.4849 89.6025C87.8961 89.5309 88.2517 89.3504 88.5518 89.061C88.8519 88.7717 89.0489 88.4193 89.1427 88.0039C89.2365 87.5886 89.2156 87.1567 89.0799 86.7084C88.9369 86.2672 88.6784 85.8526 88.3044 85.4647C87.9303 85.0768 87.5219 84.7997 87.079 84.6335C86.636 84.4816 86.2052 84.445 85.7867 84.5237C85.3682 84.6024 85.0089 84.7864 84.7088 85.0758Z" fill="black"/>
<path d="M77.8443 94.2079C77.6513 93.9211 77.5262 93.6988 77.4691 93.5411L82.3027 90.2885C81.8324 89.7716 81.3094 89.4679 80.7337 89.3773C80.158 89.2868 79.6087 89.4175 79.0856 89.7694C78.3939 90.2349 78.0611 90.8694 78.0871 91.673L76.961 92.4308C76.8172 91.78 76.8678 91.1086 77.113 90.4167C77.3639 89.7331 77.8014 89.1813 78.4256 88.7613C78.9908 88.3809 79.6061 88.1752 80.2715 88.1442C80.9369 88.1131 81.5749 88.2598 82.1854 88.5843C82.7959 88.9088 83.3141 89.3874 83.7398 90.02C84.1542 90.6358 84.3925 91.2905 84.4547 91.9839C84.5169 92.6774 84.4125 93.3236 84.1416 93.9226C83.8679 94.5358 83.4569 95.0268 82.9085 95.3958C82.3602 95.7648 81.7689 95.9605 81.1345 95.983C80.5 96.0055 79.8945 95.8614 79.3179 95.5509C78.7328 95.246 78.2416 94.7984 77.8443 94.2079ZM82.2359 94.3962C82.7251 94.0669 83.0361 93.6003 83.1689 92.9962C83.2989 92.4063 83.2159 91.8003 82.9199 91.1784L79.086 93.7583C79.5281 94.2697 80.0413 94.5861 80.6256 94.7077C81.2014 94.8349 81.7382 94.7311 82.2359 94.3962Z" fill="black"/>
<path d="M71.7905 92.8403L72.9861 92.2649L75.7772 98.0643L77.9348 97.0259L78.4706 98.1391L72.9597 100.791L72.424 99.6782L74.5816 98.6398L71.7905 92.8403Z" fill="black"/>
<path d="M67.1441 99.9978C66.388 100.237 65.7067 100.207 65.1003 99.9082C64.497 99.6191 64.0835 99.1207 63.8597 98.413C63.6359 97.7053 63.6862 97.0549 64.0105 96.4618C64.3379 95.8784 64.8797 95.4672 65.6359 95.2281L68.6315 94.2808L70.9445 101.595L69.6939 101.991L68.8892 99.446L67.1441 99.9978ZM66.1063 96.311C65.67 96.4489 65.366 96.6677 65.1941 96.9673C65.0126 97.27 64.9846 97.6201 65.1103 98.0176C65.236 98.4151 65.4601 98.6854 65.7827 98.8287C66.0986 98.9847 66.4747 98.9938 66.911 98.8558L68.5397 98.3408L67.735 95.796L66.1063 96.311Z" fill="black"/>
<path d="M53.1794 96.9932C53.8505 97.001 54.4687 97.181 55.034 97.5333C55.5891 97.8956 56.0308 98.3837 56.3593 98.9976C56.6876 99.6217 56.8475 100.305 56.8389 101.047C56.8303 101.789 56.6547 102.463 56.3121 103.07C55.9695 103.676 55.5167 104.148 54.9535 104.488C54.38 104.837 53.7577 105.008 53.0867 105C52.497 104.993 51.9649 104.849 51.4902 104.569C51.0053 104.289 50.6079 103.924 50.2979 103.473C49.9879 103.022 49.7851 102.536 49.6894 102.017L51.001 102.032C51.1376 102.532 51.387 102.941 51.7494 103.261C52.1015 103.59 52.552 103.758 53.101 103.764C53.528 103.769 53.9259 103.657 54.2946 103.427C54.6634 103.198 54.962 102.876 55.1905 102.462C55.4088 102.047 55.5211 101.571 55.5273 101.032C55.5336 100.493 55.4324 100.009 55.2238 99.5793C55.005 99.1599 54.719 98.8312 54.3659 98.5932C54.0026 98.3551 53.6023 98.2336 53.1651 98.2285C52.6161 98.2222 52.1619 98.3745 51.8024 98.6856C51.4326 99.0067 51.1736 99.4155 51.0255 99.912L49.714 99.8968C49.8217 99.3795 50.0357 98.899 50.356 98.4553C50.6764 98.0116 51.0822 97.6553 51.5734 97.3864C52.0544 97.1175 52.5898 96.9864 53.1794 96.9932Z" fill="black"/>
<path d="M44.057 98.1232L40.1677 103.346L38.8864 103.066L40.5245 95.5713L41.791 95.8482L40.7195 100.75L44.0856 96.3497L44.8306 96.5125L46.0536 101.916L47.1251 97.0141L48.3916 97.2909L46.7534 104.786L45.4274 104.496L44.057 98.1232Z" fill="black"/>
<path d="M35.9591 93.777C36.5742 94.0453 37.0735 94.4517 37.4572 94.9962C37.8275 95.546 38.0445 96.1676 38.1081 96.8609C38.1676 97.5636 38.049 98.2551 37.7522 98.9354C37.4555 99.6157 37.0313 100.168 36.4799 100.593C35.9284 101.018 35.3273 101.278 34.6765 101.371C34.0123 101.469 33.3726 101.384 32.7575 101.116C32.1518 100.852 31.6591 100.443 31.2795 99.889C30.8958 99.3444 30.6722 98.7255 30.6085 98.0322C30.5449 97.3388 30.6615 96.652 30.9583 95.9717C31.2551 95.2913 31.6812 94.734 32.2367 94.2997C32.7882 93.8747 33.396 93.6129 34.0602 93.5144C34.7204 93.4252 35.3533 93.5127 35.9591 93.777ZM35.4651 94.9093C35.0737 94.7385 34.6635 94.6872 34.2345 94.7552C33.8055 94.8232 33.4098 95.0055 33.0474 95.3022C32.6809 95.6083 32.3899 96.0083 32.1745 96.5022C31.959 96.9962 31.8658 97.4769 31.8948 97.9443C31.9238 98.4118 32.0594 98.8259 32.3014 99.1866C32.5434 99.5473 32.8601 99.813 33.2515 99.9838C33.6429 100.155 34.0531 100.206 34.4821 100.138C34.9111 100.07 35.3115 99.8896 35.6832 99.5969C36.0456 99.3002 36.3345 98.9049 36.55 98.4109C36.7655 97.917 36.8607 97.4316 36.8358 96.9548C36.7974 96.4833 36.6619 96.0692 36.4292 95.7126C36.1872 95.3519 35.8659 95.0841 35.4651 94.9093Z" fill="black"/>
<path d="M28.8913 90.3338L30.0186 91.0337L26.6235 96.5016L28.6578 97.7647L28.0061 98.8142L22.8103 95.5882L23.462 94.5386L25.4963 95.8017L28.8913 90.3338Z" fill="black"/>
<path d="M28.3495 86.9168L21.5382 94.7982L20.7996 94.1599L21.2087 93.2435L21.151 93.1936C20.8529 93.2585 20.4631 93.2509 19.9815 93.1706C19.4922 93.0837 19.0398 92.8607 18.6244 92.5017C18.1398 92.0829 17.8066 91.5665 17.6249 90.9526C17.4366 90.3463 17.4227 89.7094 17.5831 89.0417C17.7358 88.3674 18.0615 87.7417 18.5602 87.1648C19.0588 86.5878 19.6307 86.1749 20.2757 85.9261C20.9131 85.6706 21.5487 85.5883 22.1825 85.6791C22.8162 85.7699 23.3755 86.0248 23.8601 86.4436C24.2601 86.7893 24.5419 87.1941 24.7054 87.658C24.8623 88.1295 24.9259 88.507 24.896 88.7903L24.9537 88.8402L27.3572 86.0592L28.3495 86.9168ZM23.11 87.4282C22.7946 87.1556 22.4297 86.9947 22.0152 86.9456C21.593 86.8898 21.1687 86.9532 20.7423 87.1356C20.3015 87.3191 19.9049 87.6147 19.5525 88.0224C19.2002 88.4301 18.9685 88.8615 18.8574 89.3165C18.7387 89.7649 18.7375 90.1939 18.8538 90.6035C18.9625 91.0065 19.1745 91.3443 19.4899 91.6169C19.8053 91.8895 20.1741 92.0537 20.5963 92.1094C21.0184 92.1652 21.4466 92.1052 21.8807 91.9294C22.3072 91.747 22.6966 91.4519 23.0489 91.0442C23.4013 90.6364 23.6402 90.2045 23.7656 89.7485C23.8766 89.2934 23.874 88.8611 23.7576 88.4515C23.6413 88.0419 23.4254 87.7007 23.11 87.4282Z" fill="black"/>
<path d="M13.394 81.4297C13.662 81.2114 13.8719 81.0666 14.0237 80.9954L17.7034 85.5124C18.1752 84.9969 18.43 84.4484 18.4677 83.8668C18.5054 83.2853 18.3252 82.7502 17.9271 82.2614C17.4005 81.615 16.7383 81.3414 15.9404 81.4405L15.0831 80.3881C15.7181 80.1856 16.3913 80.1749 17.1027 80.356C17.8063 80.5435 18.3957 80.9289 18.8709 81.5122C19.3011 82.0404 19.5621 82.6344 19.6536 83.2942C19.7452 83.954 19.6573 84.6027 19.3898 85.2402C19.1223 85.8778 18.6929 86.4374 18.1017 86.919C17.5262 87.3878 16.8961 87.6848 16.2111 87.8099C15.5262 87.9351 14.8732 87.8901 14.252 87.6748C13.6164 87.4581 13.09 87.0936 12.6725 86.5812C12.2551 86.0688 12.0063 85.4977 11.9261 84.868C11.8459 84.2383 11.9341 83.6221 12.1908 83.0196C12.4411 82.4092 12.8421 81.8792 13.394 81.4297ZM13.6067 85.8202C13.9792 86.2774 14.4722 86.5446 15.0859 86.6217C15.6852 86.6974 16.2811 86.5596 16.8735 86.2081L13.9548 82.6253C13.4859 83.1122 13.2175 83.6521 13.1497 84.245C13.0755 84.83 13.2278 85.3551 13.6067 85.8202Z" fill="black"/>
<path d="M14.2203 75.3122L14.9035 76.4496L9.38632 79.7639L10.6194 81.8165L9.56036 82.4526L6.41102 77.21L7.47002 76.5738L8.70305 78.6264L14.2203 75.3122Z" fill="black"/>
<path d="M6.66613 71.366C6.35718 70.6355 6.32303 69.9545 6.56368 69.3228C6.79496 68.695 7.25241 68.2366 7.93601 67.9475C8.61962 67.6583 9.27187 67.6474 9.89276 67.9147C10.5043 68.186 10.9645 68.6868 11.2735 69.4172L12.4974 72.3109L5.43185 75.2993L4.9209 74.0913L7.37908 73.0516L6.66613 71.366ZM10.2394 69.9871C10.0612 69.5657 9.81483 69.2835 9.50043 69.1405C9.18206 68.9881 8.83091 68.9931 8.44696 69.1555C8.06302 69.3179 7.81485 69.5664 7.70244 69.9009C7.57672 70.2301 7.60297 70.6054 7.78121 71.0268L8.44663 72.6L10.9048 71.5603L10.2394 69.9871Z" fill="black"/>
<path d="M8.38007 57.4245C8.43694 58.0932 8.31728 58.7258 8.02107 59.3225C7.71388 59.9098 7.27056 60.3965 6.69113 60.7826C6.10157 61.1695 5.437 61.3944 4.69743 61.4573C3.95786 61.5202 3.26992 61.4103 2.63361 61.1277C1.99731 60.8451 1.48323 60.4398 1.09138 59.9119C0.688539 59.3747 0.458682 58.7718 0.40181 58.1031C0.351832 57.5155 0.443364 56.972 0.676405 56.4726C0.908584 55.963 1.2342 55.5322 1.65326 55.1803C2.07232 54.8283 2.53588 54.5797 3.04395 54.4344L3.15511 55.7413C2.67075 55.9254 2.28704 56.2131 2.004 56.6046C1.70996 56.9867 1.58621 57.4513 1.63274 57.9984C1.66893 58.4239 1.81905 58.8091 2.08308 59.154C2.34712 59.4989 2.6963 59.7652 3.13064 59.9527C3.56411 60.1301 4.04932 60.196 4.58627 60.1504C5.12322 60.1047 5.5954 59.9574 6.00281 59.7084C6.39923 59.4502 6.69887 59.1339 6.90173 58.7595C7.10372 58.375 7.18619 57.9649 7.14914 57.5292C7.10261 56.9822 6.90723 56.5447 6.56301 56.2168C6.20779 55.8796 5.77594 55.6613 5.26745 55.5616L5.15629 54.2547C5.68159 54.3121 6.18049 54.4789 6.65297 54.755C7.12545 55.0312 7.51914 55.4008 7.83404 55.8638C8.14808 56.3167 8.33009 56.8369 8.38007 57.4245Z" fill="black"/>
<path d="M6.38682 48.2141L0.829195 44.8205L0.990532 43.5188L8.60381 44.4624L8.44435 45.749L3.46469 45.1318L8.15544 48.0799L8.06164 48.8367L2.79308 50.5504L7.77274 51.1676L7.61328 52.4541L0 51.5105L0.166965 50.1634L6.38682 48.2141Z" fill="black"/>
<path d="M9.92176 39.851C9.7122 40.4885 9.35431 41.0237 8.84809 41.4567C8.33539 41.8768 7.73687 42.151 7.05253 42.2792C6.35854 42.4043 5.65898 42.3509 4.95386 42.1192C4.24874 41.8874 3.65879 41.5169 3.18401 41.0076C2.70924 40.4983 2.39496 39.9241 2.24118 39.2849C2.08091 38.6328 2.10556 37.9881 2.31512 37.3505C2.5215 36.7227 2.88263 36.1939 3.39851 35.7641C3.90473 35.3311 4.50001 35.0505 5.18434 34.9223C5.86868 34.794 6.56341 34.8458 7.26853 35.0776C7.97365 35.3094 8.56843 35.6815 9.05287 36.1939C9.52764 36.7032 9.84516 37.2838 10.0054 37.9359C10.156 38.5847 10.1281 39.2231 9.92176 39.851ZM8.74817 39.4652C8.88152 39.0595 8.89427 38.6463 8.78641 38.2255C8.67855 37.8047 8.45995 37.4279 8.1306 37.0948C7.79159 36.7586 7.36611 36.5064 6.85417 36.3381C6.34224 36.1698 5.85491 36.122 5.39221 36.1947C4.9295 36.2673 4.52991 36.441 4.19345 36.7157C3.85698 36.9904 3.62207 37.3306 3.48871 37.7363C3.35536 38.142 3.34261 38.5552 3.45047 38.976C3.55832 39.3968 3.77534 39.7785 4.10152 40.1212C4.43087 40.4542 4.85151 40.7048 5.36345 40.8731C5.87539 41.0414 6.36754 41.0908 6.83991 41.0213C7.30579 40.939 7.70538 40.7653 8.03867 40.5003C8.37514 40.2256 8.61164 39.8805 8.74817 39.4652Z" fill="black"/>
<path d="M12.6689 32.4938L12.0758 33.6807L6.31842 30.8038L5.2481 32.9458L4.14301 32.3936L6.87676 26.9227L7.98185 27.4749L6.91153 29.6169L12.6689 32.4938Z" fill="black"/>
<path d="M16.1016 31.4762L7.63319 25.4102L8.2016 24.6167L9.15147 24.9406L9.19588 24.8786C9.10407 24.5877 9.07622 24.1988 9.11233 23.7119C9.15436 23.2167 9.33524 22.7459 9.65497 22.2996C10.028 21.7788 10.5119 21.4001 11.1068 21.1633C11.6934 20.9206 12.3264 20.8487 13.0059 20.9477C13.6913 21.0385 14.344 21.3059 14.9639 21.75C15.5839 22.194 16.0471 22.7259 16.3536 23.3457C16.666 23.9572 16.8058 24.5827 16.773 25.2221C16.7403 25.8615 16.5374 26.4415 16.1644 26.9623C15.8565 27.3921 15.479 27.7096 15.0319 27.9146C14.5766 28.1138 14.2065 28.2114 13.9217 28.2075L13.8773 28.2695L16.8654 30.4099L16.1016 31.4762ZM15.1157 26.3049C15.3584 25.966 15.4854 25.5879 15.4966 25.1707C15.5137 24.7452 15.412 24.3284 15.1915 23.9204C14.9687 23.4981 14.6382 23.1301 14.2001 22.8163C13.7621 22.5025 13.3114 22.311 12.8482 22.2418C12.3908 22.1644 11.9635 22.2022 11.5661 22.3553C11.1747 22.5002 10.8576 22.7421 10.6149 23.081C10.3721 23.4199 10.2422 23.8021 10.2251 24.2275C10.2079 24.653 10.3067 25.0739 10.5212 25.4903C10.7417 25.8984 11.071 26.2593 11.5091 26.5731C11.9472 26.8869 12.399 27.0855 12.8646 27.1689C13.3279 27.238 13.7581 27.1961 14.1555 27.0429C14.5528 26.8898 14.8729 26.6438 15.1157 26.3049Z" fill="black"/>
<path d="M20.0203 16.2509C20.2629 16.4971 20.4269 16.6925 20.5121 16.8369L16.3626 20.9265C16.9203 21.3476 17.4905 21.5494 18.073 21.5321C18.6555 21.5148 19.1712 21.2848 19.6202 20.8423C20.214 20.2571 20.4239 19.572 20.2499 18.787L21.2166 17.8342C21.4782 18.4472 21.5524 19.1164 21.4393 19.8418C21.3191 20.5599 20.991 21.183 20.4551 21.7112C19.9699 22.1894 19.4032 22.5052 18.755 22.6587C18.1068 22.8121 17.4527 22.7858 16.7928 22.5797C16.1328 22.3736 15.5352 21.999 14.9999 21.4558C14.4789 20.9272 14.1237 20.3279 13.9345 19.6578C13.7452 18.9878 13.7284 18.3334 13.884 17.6946C14.0397 17.0415 14.353 16.483 14.8237 16.019C15.2944 15.5551 15.8394 15.2535 16.4588 15.1142C17.0781 14.9749 17.6998 15.0046 18.3239 15.2033C18.9552 15.3948 19.5206 15.744 20.0203 16.2509ZM15.6694 16.8772C15.2494 17.2911 15.03 17.8072 15.0111 18.4254C14.9923 19.0292 15.1858 19.6094 15.5916 20.166L18.883 16.9221C18.354 16.5012 17.7912 16.2851 17.1945 16.2735C16.605 16.2549 16.0967 16.4561 15.6694 16.8772Z" fill="black"/>
<path d="M26.291 16.4027L25.2208 17.1872L21.4158 11.9963L19.4846 13.4119L18.7542 12.4155L23.6868 8.79983L24.4172 9.79619L22.486 11.2118L26.291 16.4027Z" fill="black"/>
<path d="M29.4837 8.52497C30.1823 8.14962 30.8573 8.05246 31.5086 8.23349C32.1551 8.40556 32.6539 8.81852 33.0052 9.47237C33.3565 10.1262 33.4279 10.7746 33.2193 11.4176C33.0059 12.0517 32.5499 12.5564 31.8513 12.9317L29.0836 14.4187L25.4528 7.66078L26.6083 7.04L27.8715 9.39117L29.4837 8.52497ZM31.188 11.955C31.5911 11.7384 31.8492 11.467 31.9625 11.1407C32.0847 10.8096 32.0471 10.4604 31.8498 10.0931C31.6525 9.72591 31.3821 9.50185 31.0385 9.42096C30.6991 9.32631 30.3279 9.38725 29.9248 9.6038L28.4201 10.4122L29.6833 12.7634L31.188 11.955Z" fill="black"/>
<path d="M43.4924 8.90758C42.8318 9.02574 42.1909 8.9648 41.5695 8.72475C40.9563 8.47291 40.4309 8.07626 39.9932 7.53481C39.5537 6.98335 39.2686 6.3423 39.1379 5.61165C39.0072 4.88101 39.0533 4.18588 39.2762 3.52627C39.4991 2.86666 39.8553 2.31747 40.3449 1.8787C40.8428 1.42813 41.422 1.14377 42.0825 1.02561C42.6631 0.921772 43.2127 0.962901 43.7314 1.149C44.2602 1.3333 44.7191 1.6179 45.1082 2.00279C45.4972 2.38768 45.7874 2.8264 45.9788 3.31894L44.6877 3.54989C44.4598 3.08452 44.138 2.72893 43.7222 2.4831C43.3146 2.22548 42.8405 2.14501 42.3001 2.24168C41.8797 2.31688 41.5099 2.5018 41.1908 2.79645C40.8717 3.09111 40.6387 3.46331 40.4919 3.91306C40.3551 4.36102 40.3342 4.85023 40.4291 5.3807C40.5239 5.91117 40.7141 6.36779 40.9994 6.75057C41.293 7.12155 41.6356 7.39081 42.0271 7.55835C42.4286 7.7241 42.8445 7.76849 43.2749 7.6915C43.8154 7.59483 44.233 7.36002 44.5278 6.98709C44.8309 6.60235 45.0086 6.15224 45.061 5.63674L46.3521 5.40579C46.3433 5.93414 46.2232 6.44627 45.9917 6.94215C45.7602 7.43804 45.4284 7.86407 44.9963 8.22025C44.5742 8.57463 44.0729 8.80374 43.4924 8.90758Z" fill="black"/>
<path d="M52.4823 6.05527L55.3484 0.208113L56.6594 0.248606L56.4226 7.91648L55.1268 7.87646L55.2817 2.86109L52.7792 7.80395L52.017 7.78041L49.8243 2.69253L49.6694 7.7079L48.3736 7.66788L48.6104 0L49.9672 0.0419052L52.4823 6.05527Z" fill="black"/>
<path d="M61.344 8.82259C60.6901 8.67181 60.1245 8.36402 59.6474 7.89922C59.1824 7.42679 58.855 6.85565 58.6651 6.1858C58.4775 5.50603 58.4671 4.80452 58.6339 4.08126C58.8007 3.358 59.1161 2.73683 59.5801 2.21776C60.0442 1.69869 60.5875 1.33355 61.2101 1.12234C61.8449 0.903508 62.4892 0.869485 63.1431 1.02027C63.7871 1.16877 64.3466 1.48037 64.8214 1.95508C65.2986 2.41988 65.6321 2.98721 65.822 3.65707C66.0119 4.32692 66.0234 5.02348 65.8566 5.74674C65.6899 6.47001 65.3733 7.09613 64.907 7.6251C64.443 8.14417 63.8936 8.51313 63.2588 8.73196C62.6263 8.94088 61.988 8.97109 61.344 8.82259ZM61.6216 7.61881C62.0377 7.71476 62.4504 7.68992 62.8596 7.54429C63.2688 7.39866 63.6243 7.14672 63.926 6.78848C64.23 6.42034 64.4426 5.97371 64.5637 5.4486C64.6848 4.92349 64.6881 4.43384 64.5737 3.97965C64.4593 3.52545 64.2501 3.1433 63.9459 2.83317C63.6418 2.52305 63.2817 2.32001 62.8655 2.22406C62.4494 2.1281 62.0368 2.15294 61.6275 2.29857C61.2183 2.4442 60.8579 2.695 60.5462 3.05095C60.2445 3.40919 60.0331 3.85086 59.912 4.37597C59.7909 4.90108 59.7864 5.39569 59.8985 5.85979C60.0228 6.31627 60.2321 6.69842 60.5263 7.00626C60.8305 7.31639 61.1955 7.52057 61.6216 7.61881Z" fill="black"/>
<path d="M69.0426 10.9368L67.8074 10.452L70.1586 4.46071L67.9296 3.58598L68.3809 2.43599L74.0741 4.67016L73.6228 5.82016L71.3938 4.94543L69.0426 10.9368Z" fill="black"/>
<path d="M69.9456 14.0623L75.1776 5.05476L76.0217 5.54503L75.7896 6.52143L75.8556 6.55973C76.1364 6.44064 76.5209 6.37589 77.009 6.36547C77.506 6.36016 77.9919 6.49539 78.4666 6.77116C79.0205 7.0929 79.4437 7.53857 79.736 8.10816C80.0335 8.66897 80.1653 9.2923 80.1314 9.97814C80.1063 10.6691 79.9023 11.3443 79.5193 12.0037C79.1363 12.6631 78.6509 13.1748 78.0631 13.539C77.4841 13.9082 76.8748 14.1069 76.2352 14.1352C75.5956 14.1634 74.9988 14.0167 74.4449 13.695C73.9877 13.4294 73.6358 13.0839 73.3891 12.6584C73.1475 12.2241 73.0151 11.865 72.9919 11.581L72.9259 11.5427L71.0798 14.7211L69.9456 14.0623ZM74.9995 12.5884C75.36 12.7978 75.7484 12.8882 76.1648 12.8596C76.59 12.8361 76.9952 12.6952 77.3804 12.4369C77.7795 12.1749 78.1144 11.8109 78.3851 11.3449C78.6558 10.8789 78.8035 10.4121 78.8282 9.94433C78.8618 9.48171 78.7834 9.05992 78.5931 8.67896C78.4116 8.30311 78.1407 8.01049 77.7802 7.80111C77.4197 7.59172 77.0269 7.49877 76.6017 7.52224C76.1765 7.54572 75.7669 7.68408 75.3729 7.93731C74.9877 8.19565 74.6597 8.55781 74.3891 9.02379C74.1184 9.48978 73.9637 9.95847 73.9251 10.4299C73.9003 10.8976 73.9831 11.3219 74.1734 11.7029C74.3636 12.0839 74.639 12.379 74.9995 12.5884Z" fill="black"/>
<path d="M85.742 16.7254C85.5188 16.9894 85.3392 17.1704 85.2031 17.2684L80.7538 13.5071C80.3851 14.1008 80.2358 14.6869 80.3059 15.2654C80.376 15.8439 80.6518 16.3367 81.1332 16.7437C81.7699 17.2819 82.4713 17.4288 83.2372 17.1842L84.2738 18.0605C83.687 18.3766 83.0273 18.5113 82.2947 18.4645C81.5687 18.4099 80.9183 18.1397 80.3437 17.654C79.8235 17.2142 79.4575 16.6785 79.2459 16.0469C79.0342 15.4153 79.0011 14.7615 79.1464 14.0855C79.2918 13.4096 79.6106 12.7804 80.103 12.1981C80.5821 11.6312 81.1468 11.2232 81.7969 10.9739C82.4469 10.7246 83.0971 10.6485 83.7474 10.7455C84.412 10.8413 84.9966 11.1026 85.5013 11.5292C86.0061 11.9559 86.3559 12.4713 86.5508 13.0754C86.7457 13.6796 86.7726 14.3014 86.6314 14.9409C86.4979 15.587 86.2015 16.1819 85.742 16.7254ZM84.7235 12.4494C84.2731 12.0686 83.7393 11.8969 83.1219 11.9342C82.5189 11.9704 81.9586 12.2157 81.4412 12.6703L84.9704 15.6537C85.3415 15.0887 85.5057 14.5086 85.463 13.9133C85.4281 13.3246 85.1816 12.8367 84.7235 12.4494Z" fill="black"/>
<path d="M86.1637 22.992L85.2852 21.9976L90.1085 17.7362L88.5231 15.9418L89.449 15.1238L93.4983 19.7072L92.5725 20.5251L90.9871 18.7306L86.1637 22.992Z" fill="black"/>
<path d="M94.2871 25.4402C94.725 26.1014 94.8838 26.7645 94.7634 27.4297C94.6514 28.0893 94.286 28.624 93.6672 29.0338C93.0484 29.4437 92.4092 29.5743 91.7498 29.4257C91.0988 29.2715 90.5544 28.8637 90.1164 28.2025L88.3816 25.5831L94.7774 21.347L95.5017 22.4405L93.2765 23.9143L94.2871 25.4402ZM91.0282 27.4523C91.2808 27.8338 91.5748 28.0659 91.9101 28.1487C92.2511 28.24 92.5953 28.1705 92.9429 27.9403C93.2905 27.7101 93.4887 27.4202 93.5377 27.0707C93.6008 26.724 93.506 26.36 93.2534 25.9785L92.3101 24.5544L90.0849 26.0282L91.0282 27.4523Z" fill="black"/>
</svg>
