<svg width="34" height="34" viewBox="0 0 34 34" fill="none" xmlns="http://www.w3.org/2000/svg">
<path d="M8.78936 26.7847C8.47523 27.0989 7.96592 27.0989 7.65179 26.7847C7.33766 26.4706 7.33766 25.9613 7.65179 25.6472L16.0807 17.2183L7.65179 8.78936C7.33766 8.47523 7.33766 7.96592 7.65179 7.65179C7.96592 7.33766 8.47523 7.33766 8.78936 7.65179L17.2183 16.0807L25.6472 7.65179C25.9613 7.33766 26.4706 7.33766 26.7847 7.65179C27.0989 7.96592 27.0989 8.47523 26.7847 8.78936L18.3558 17.2183L26.7847 25.6472C27.0989 25.9613 27.0989 26.4706 26.7847 26.7847C26.4706 27.0989 25.9613 27.0989 25.6472 26.7847L17.2183 18.3558L8.78936 26.7847Z" fill="#1A1A1A"/>
</svg>
