<svg width="30" height="6" viewBox="0 0 30 6" fill="none" xmlns="http://www.w3.org/2000/svg">
<mask id="path-1-inside-1_2718_2229" fill="white">
<path d="M0.587118 1.70286C0.273629 2.44236 0.666045 3.2931 1.43997 3.50937C10.2677 5.9762 19.7901 5.90588 28.5633 3.30922C29.3368 3.08029 29.7149 2.21871 29.3846 1.48235C29.0986 0.844609 28.3771 0.528664 27.708 0.729476C19.48 3.19875 10.5307 3.26585 2.25034 0.920384C1.57697 0.729645 0.860149 1.0588 0.587118 1.70286Z"/>
</mask>
<path d="M28.5633 3.30922L27.4255 -0.526371L28.5633 3.30922ZM0.366076 7.36172C9.91704 10.0307 20.206 9.95514 29.7011 7.14482L27.4255 -0.526371C19.3742 1.85662 10.6183 1.92173 2.51386 -0.342989L0.366076 7.36172ZM26.5556 -3.10178C19.0584 -0.851802 10.8861 -0.790039 3.33786 -2.92814L1.16283 4.76891C10.1752 7.32174 19.9017 7.24929 28.8603 4.56074L26.5556 -3.10178ZM3.33786 -2.92814C0.791917 -3.6493 -2.00943 -2.42334 -3.09581 0.139371L4.27005 3.26635C3.72973 4.54093 2.36202 5.10859 1.16283 4.76891L3.33786 -2.92814ZM33.0341 -0.152345C31.8973 -2.68699 29.0822 -3.86005 26.5556 -3.10178L28.8603 4.56074C27.672 4.91738 26.2998 4.3762 25.7351 3.11704L33.0341 -0.152345ZM29.7011 7.14482C32.8785 6.20439 34.3192 2.71276 33.0341 -0.152345L25.7351 3.11704C25.1106 1.72466 25.7951 -0.043808 27.4255 -0.526371L29.7011 7.14482ZM2.51386 -0.342989C4.14774 0.113587 4.8644 1.86432 4.27005 3.26635L-3.09581 0.139371C-4.31714 3.0204 -2.81565 6.47261 0.366076 7.36172L2.51386 -0.342989Z" fill="white" mask="url(#path-1-inside-1_2718_2229)"/>
</svg>
